# xmcd
#
# Track frame offsets: 
#        150
#        19752
#        39554
#        51656
#        65761
#        86083
#        98578
#        113589
#        123464
#        135753
#        153662
#        171265
#        190416
#
# Disc length: 2690 seconds
#
# Revision: 5
# Processed by: cddbd v1.5.2PL0 Copyright (c) Steve Scherf et al.
# Submitted via: ExactAudioCopy v1.3
#
DISCID=b10a800d
DTITLE=Eleni Mandell - Country for True Lovers (2007)
DYEAR=2003
DGENRE=Country
TTITLE0=Another Lonely Heart
TTITLE1=Don't Say You Care
TTITLE2=I've Got a Tender Heart
TTITLE3=It's Raining
TTITLE4=Kingsport Town
TTITLE5=Tell Me Twice
TTITLE6=Refrain
TTITLE7=Iowa City
TTITLE8=You're All Bad (And That's Why You've Been Invited!)
TTITLE9=Don't Touch Me
TTITLE10=Home
TTITLE11=Blue Ribbon Eyes
TTITLE12=Full Moon
EXTD=
EXTT0=
EXTT1=
EXTT2=
EXTT3=
EXTT4=
EXTT5=
EXTT6=
EXTT7=
EXTT8=
EXTT9=
EXTT10=
EXTT11=
EXTT12=
PLAYORDER=
